<!-- icon666.com - MILLIONS vector ICONS FREE --><svg xmlns="http://www.w3.org/2000/svg" xmlns:xlink="http://www.w3.org/1999/xlink" version="1.1" id="Layer_1" x="0px" y="0px" viewBox="0 0 512 512" style="enable-background:new 0 0 512 512;" xml:space="preserve"><style type="text/css"> .st0{fill:#8E9DA8;} .st1{fill:#E19A74;} .st2{fill:#A3C733;} .st3{fill:#FCD2A6;} .st4{fill:#7A8C98;} .st5{fill:#BAD36B;} .st6{fill:#FEE5C3;} .st7{fill:#99C335;} .st8{fill:#D9E7EC;} </style><g><g><path class="st0" d="M448.24,139.405c-4.023-0.982-2.668-17.71-3.651-13.686l-58.502,239.55c-0.982,4.024,1.483,8.083,5.507,9.065 c0.598,0.146,1.196,0.216,1.785,0.216c3.377,0,6.444-2.296,7.281-5.723l58.502-239.55 C460.144,125.253,452.263,140.387,448.24,139.405z"></path><path class="st0" d="M473.865,215.241c-4.024-0.983-2.679-15.666-3.661-11.642l-58.502,239.55 c-0.982,4.024,1.483,8.083,5.507,9.065c0.598,0.146,1.196,0.216,1.785,0.216c3.377,0,6.444-2.296,7.281-5.723l58.502-239.55 C485.759,203.133,477.889,216.224,473.865,215.241z"></path></g><g><g><g><path class="st0" d="M280.476,456.901L119.497,44.626c-1.506-3.859-5.86-5.764-9.714-4.258 c-3.859,1.507-5.766,5.856-4.259,9.715l160.98,412.275c1.156,2.963,3.989,4.774,6.989,4.774c0.907,0,1.83-0.166,2.726-0.516 C280.075,465.109,281.982,460.759,280.476,456.901z"></path><path class="st1" d="M179.516,485.052C96.05,445.453,73.873,369.991,50.733,297.611 c-7.459-23.333-41.398-139.638,56.288-219.625c24.567-20.363,33.469-17.533,35.483-29.468 c4.344-25.738-16.189-46.089-28.862-35.358c-6.997,5.925-4.189,24.473-4.189,24.473S86.321,52.251,72.248,67.59l0.001,0.001 c-38.464,37.683-88.502,118.64-52.181,234.549c30.464,111.401,65.301,166.933,92.755,194.61"></path></g><g><g><g><polygon class="st2" points="463.131,160.096 441.14,171.576 426.881,151.311 437.616,107.233 451.875,127.498 473.865,116.018 "></polygon><g><polygon class="st2" points="488.746,237.976 466.756,249.457 452.497,229.192 463.231,185.113 477.49,205.378 499.481,193.898 "></polygon></g></g><polygon class="st1" points="442.731,490.481 350.161,468.355 399.703,262.097 492.274,284.222 "></polygon><path class="st3" d="M484.985,324.446l-92.003-22.027c-6.887-1.649-11.131-8.571-9.477-15.457l3.712-15.453 c1.652-6.879,8.565-11.118,15.445-9.47l92.003,22.027c6.887,1.649,11.131,8.571,9.477,15.457l-3.712,15.453 C498.778,321.854,491.865,326.093,484.985,324.446z"></path></g><g><g><g><path class="st0" d="M494.366,507.25v-12.473c0-48.035-25.422-93.101-68.225-120.943l0,0H99.287l0,0 c-42.803,27.843-68.225,72.908-68.225,120.943v12.473H494.366z"></path></g><path class="st4" d="M426.141,373.834H386.14c42.803,27.842,68.225,72.908,68.225,120.943v12.473h40.001v-12.473 C494.366,446.742,468.944,401.677,426.141,373.834z"></path><polygon class="st1" points="141.937,507.25 382.62,360.562 426.233,382.189 216.179,507.25 "></polygon></g></g><g><g><path class="st5" d="M408.994,348.816c47.265-25.392,15.912-152.263-40.392-238.878 c24.007,10.404,53.081,17.846,24.771-23.708C341.118,9.53,263.565-8.092,202.694,59.282 C126.72,134.528,59.371,318.09,116.276,348.909c-11.895,7.003-25.074,14.224-39.662,21.581l1.041,2.416 c20.941,48.616,68.891,80.123,121.935,80.123h126.279c53.999,0,102.615-32.637,122.948-82.539l0,0 C434.162,363.1,420.93,355.848,408.994,348.816z"></path><path class="st2" d="M408.994,348.816c47.265-25.392,15.912-152.263-40.392-238.878 c24.007,10.404,53.081,17.846,24.771-23.708c-18.34-26.92-39.796-46.562-62.554-57.806 c-26.451-13.069-51.766,19.811-32.683,42.311c9.578,11.293,19.662,24.409,30.464,39.204 c56.304,86.615,87.657,213.485,40.392,238.878c11.936,7.033,25.168,14.284,39.821,21.674 c-20.333,49.902-68.949,82.539-122.948,82.539h40.001c53.999,0,102.615-32.637,122.948-82.539 C434.162,363.1,420.93,355.848,408.994,348.816z"></path><path class="st6" d="M350.334,232.013c0-36.709-8.261-73.982-33.002-76.939c-20.796-2.485-34.539,20.814-54.878,20.814 c-20.012,0-30.561-25.988-54.386-21.122c-23.68,4.836-32.033,39.519-32.033,77.246v30.844l87.15,32.202l87.15-32.202v-30.843 H350.334z"></path></g><g><path class="st0" d="M263.184,370.67L263.184,370.67c-48.132,0-87.15-38.922-87.15-86.935v-20.879l53.648-33.751 c20.469-12.878,46.534-12.878,67.004,0l53.648,33.751v20.879C350.334,331.748,311.316,370.67,263.184,370.67z"></path><path class="st4" d="M303.752,273.952c-1.652,0-3.316-0.543-4.702-1.661c-0.184-0.147-19.251-15.292-35.497-15.292 c-13.53,0-30.311,10.529-35.635,14.586c-3.298,2.511-8.001,1.874-10.512-1.419c-2.51-3.295-1.875-8.001,1.42-10.512 c0.946-0.721,23.415-17.656,44.727-17.656c21.572,0,43.968,17.854,44.912,18.613c3.225,2.6,3.732,7.322,1.132,10.547 C308.115,272.997,305.943,273.952,303.752,273.952z"></path></g></g></g></g><path class="st7" d="M374.924,105.903c-0.847-1.325-20.969-32.67-41.702-50.519c-3.14-2.702-7.874-2.349-10.578,0.791 c-2.703,3.139-2.349,7.875,0.79,10.577c19.047,16.398,38.651,46.919,38.847,47.226c1.431,2.239,3.853,3.463,6.327,3.463 c1.382,0,2.78-0.381,4.03-1.18C376.13,114.03,377.152,109.393,374.924,105.903z"></path></g><g><path class="st7" d="M210.446,414.102c-1.166,0-2.348-0.272-3.453-0.847c-17.368-9.027-29.305-21.116-39.835-31.781 c-12.635-12.796-20.921-20.638-31.587-20.638c-4.143,0-7.5-3.358-7.5-7.5c0-4.142,3.358-7.5,7.5-7.5 c17.476,0,29.515,12.192,42.26,25.099c9.753,9.877,20.808,21.073,36.08,29.011c3.676,1.911,5.107,6.439,3.195,10.114 C215.773,412.629,213.156,414.102,210.446,414.102z"></path></g><g><path class="st7" d="M316.809,413.209c-2.622,0-5.168-1.378-6.545-3.826c-2.029-3.61-0.748-8.183,2.862-10.213 c13.492-7.585,22.992-17.565,32.18-27.216c12.787-13.432,24.864-26.12,44.031-26.12c4.143,0,7.5,3.358,7.5,7.5 c0,4.142-3.358,7.5-7.5,7.5c-12.736,0-21.305,9.002-33.166,21.462c-9.487,9.966-20.239,21.261-35.693,29.949 C319.316,412.899,318.053,413.209,316.809,413.209z"></path></g><path class="st8" d="M438.146,30.865c-1.623-3.856-6.202-5.68-10.023-3.959c-3.709,1.671-5.425,6.202-3.743,9.907 c1.652,3.639,6,5.38,9.706,3.852C437.888,39.098,439.664,34.646,438.146,30.865z"></path><path class="st8" d="M491.779,9.364c-1.593-3.766-6.005-5.62-9.801-4.06c-3.787,1.556-5.601,6.037-4.05,9.801 c1.556,3.774,6.019,5.617,9.79,4.06C491.524,17.592,493.291,13.152,491.779,9.364z"></path><path class="st8" d="M106.956,137.868c-1.441-3.611-5.686-5.464-9.334-4.226c-4.048,1.374-6.145,6.023-4.508,9.966 c1.566,3.773,6.015,5.616,9.788,4.052C106.662,146.103,108.551,141.639,106.956,137.868z"></path><path class="st8" d="M14.403,68.866c-1.441-3.611-5.685-5.464-9.332-4.226c-3.964,1.345-6.069,5.825-4.604,9.737 c1.434,3.83,5.852,5.819,9.673,4.368C14.027,77.268,16.023,72.714,14.403,68.866z"></path><path class="st8" d="M65.225,5.994c-3.519-2.316-8.394-1.251-10.58,2.362c-2.034,3.361-1.045,7.944,2.25,10.118 c3.514,2.318,8.404,1.25,10.586-2.362C69.546,12.695,68.493,8.232,65.225,5.994z"></path><path class="st8" d="M511.849,72.276c-0.752-4.018-4.841-6.69-8.82-5.89c-4.01,0.806-6.677,4.808-5.881,8.82 c0.794,4.003,4.822,6.685,8.821,5.881C509.941,80.288,512.687,76.275,511.849,72.276z"></path></g></svg>