<!-- icon666.com - MILLIONS vector ICONS FREE --><svg viewBox="0 0 24 24" xmlns="http://www.w3.org/2000/svg"><path d="m17.67 6-.67 2-.69-2.07a13.89 13.89 0 0 1 -3.81-.93c-3.02-1.21-4.33-1-12.5-1v18h5.33l.67-2 .67 2c4.55.12 5.39 2 10 2h7.33v-18z" fill="#61c5fa"></path><path d="m10.32 8.73a13.71 13.71 0 0 0 -3.32 4.27 13.59 13.59 0 0 0 -3.32-4.27 5 5 0 1 1 6.64 0z" fill="#6dedd4"></path><circle cx="7" cy="5" fill="#fff" r="2"></circle><path d="m9.5 19a3.5 3.5 0 0 1 -3.5-3.5v-.5h2v.5a1.5 1.5 0 0 0 3 0v-.5a5 5 0 0 1 10 0v1h-2v-1a3 3 0 0 0 -6 0v.5a3.5 3.5 0 0 1 -3.5 3.5z" fill="#468ff1"></path><circle cx="20" cy="20" fill="#3870cf" r="2"></circle><g fill="#fff"><circle cx="21" cy="9" r="1"></circle><circle cx="16" cy="15" r="1"></circle><circle cx="3" cy="13" r="1"></circle><circle cx="4" cy="18" r="1"></circle></g></svg>