<svg xmlns="http://www.w3.org/2000/svg" xmlns:xlink="http://www.w3.org/1999/xlink" viewBox="0 0 800 800" width="800" height="800" preserveAspectRatio="xMidYMid meet" style="width: 100%; height: 100%; transform: translate3d(0px, 0px, 0px); content-visibility: visible;"><g opacity="1" transform="matrix(1,0,0,1,436.5769958496094,472.2539978027344)"><path fill="rgb(203,203,203)" fill-opacity="1" d=" M25.336000442504883,247.74600219726562 C25.336000442504883,247.74600219726562 204.4290008544922,179.41400146484375 204.4290008544922,179.41400146484375 C204.3209991455078,179.11599731445312 204.19900512695312,178.8040008544922 204.0970001220703,178.51400756835938 C204.0970001220703,178.51400756835938 180.21499633789062,113.61100006103516 180.21499633789062,113.61100006103516 C180.69500732421875,110.28800201416016 185.5570068359375,101.44999694824219 188.21800231933594,96.61299896240234 C191.95399475097656,89.822998046875 195.18299865722656,83.95700073242188 196.30099487304688,79.14700317382812 C205.9250030517578,37.861000061035156 189.1790008544922,-2.7760000228881836 174.40199279785156,-38.63100051879883 C172.91700744628906,-42.23699951171875 171.44400024414062,-45.8129997253418 170.01199340820312,-49.35200119018555 C170.01199340820312,-49.35200119018555 153.53700256347656,-92.53099822998047 153.53700256347656,-92.53099822998047 C151.9029998779297,-96.81300354003906 149.53500366210938,-101.05599975585938 146.68899536132812,-104.927001953125 C143.88099670410156,-109.45800018310547 140.11199951171875,-113.15299987792969 135.76800537109375,-115.88800048828125 C132.82200622558594,-117.98699951171875 129.72999572753906,-119.60099792480469 126.60299682617188,-120.51000213623047 C120.0199966430664,-122.41999816894531 113.25399780273438,-122.03099822998047 106.88700103759766,-119.56500244140625 C106.27999877929688,-119.37000274658203 105.66999816894531,-119.2040023803711 105.06700134277344,-118.9739990234375 C93.99600219726562,-114.75 85.75,-107.0530014038086 83.18399810791016,-96.33799743652344 C81.8030014038086,-100.36699676513672 80.43199920654297,-104.36499786376953 78.69599914550781,-107.6780014038086 C75.43599700927734,-115.87899780273438 69.98400115966797,-121.33999633789062 63.72600173950195,-124.65499877929688 C54.75600051879883,-130.60000610351562 43.1619987487793,-132.30299377441406 32.340999603271484,-128.1739959716797 C21.273000717163086,-123.95099639892578 13.642999649047852,-114.64700317382812 11.074999809265137,-103.93599700927734 C11.074999809265137,-103.93599700927734 8.57800006866455,-110.4800033569336 8.57800006866455,-110.4800033569336 C7.160999774932861,-114.19599914550781 5.14300012588501,-117.74800109863281 2.7019999027252197,-120.99199676513672 C-5.822000026702881,-134.8350067138672 -23.22100067138672,-141.1300048828125 -38.96699905395508,-135.1219940185547 C-49.98699951171875,-130.91799926757812 -57.59400177001953,-121.67500305175781 -60.194000244140625,-111.02200317382812 C-75.47200012207031,-152.0989990234375 -100.91999816894531,-216.69900512695312 -102.56199645996094,-221.0019989013672 C-109.35800170898438,-238.81500244140625 -129.30799865722656,-247.74600219726562 -147.12100219726562,-240.94900512695312 C-164.9340057373047,-234.1529998779297 -173.86500549316406,-214.2030029296875 -167.0679931640625,-196.38999938964844 C-166.0019989013672,-193.5970001220703 -99.83499908447266,-21.22100067138672 -99.83499908447266,-21.22100067138672 C-89.05899810791016,7.0229997634887695 -86.46399688720703,20.447999954223633 -86.02300262451172,26.525999069213867 C-86.26699829101562,26.364999771118164 -86.52200317382812,26.194000244140625 -86.78900146484375,26.010000228881836 C-105.56300354003906,13.116000175476074 -126.65899658203125,1.0169999599456787 -149.90699768066406,-11.550999641418457 C-160.44000244140625,-17.2450008392334 -171.156005859375,-18.086000442504883 -183.343994140625,-13.435999870300293 C-192.7449951171875,-9.848999977111816 -199.5679931640625,-2.4749999046325684 -202.802001953125,6.2769999504089355 C-204.1790008544922,8.946999549865723 -204.89199829101562,11.531000137329102 -205.20899963378906,13.793000221252441 C-205.9250030517578,18.898000717163086 -205.0030059814453,23.99799919128418 -202.9510040283203,29.04599952697754 C-202.86000061035156,29.299999237060547 -202.7989959716797,29.55699920654297 -202.7030029296875,29.80900001525879 C-201.52099609375,32.90700149536133 -199.9149932861328,35.7140007019043 -197.99899291992188,38.220001220703125 C-190.77499389648438,49.0629997253418 -179.31900024414062,59.51300048828125 -168.19000244140625,69.05599975585938 C-168.19000244140625,69.05599975585938 -166.68600463867188,70.34500122070312 -166.68600463867188,70.34500122070312 C-111.53900146484375,117.78500366210938 -62.9370002746582,151.56900024414062 -13.729000091552734,176.66799926757812 C0.22200000286102295,183.78500366210938 17.00200080871582,227.36000061035156 22.93199920654297,241.92300415039062 C23.679000854492188,243.7570037841797 24.486000061035156,245.7169952392578 25.336000442504883,247.74600219726562z"/></g></svg>